<svg width="336" height="252" xmlns="http://www.w3.org/2000/svg" xmlns:xlink="http://www.w3.org/1999/xlink" overflow="hidden"><defs><clipPath id="clip0"><rect x="920" y="448" width="336" height="252"/></clipPath><clipPath id="clip1"><rect x="921" y="448" width="334" height="251"/></clipPath><clipPath id="clip2"><rect x="921" y="448" width="334" height="251"/></clipPath><clipPath id="clip3"><rect x="921" y="448" width="1027" height="251"/></clipPath></defs><g clip-path="url(#clip0)" transform="translate(-920 -448)"><g clip-path="url(#clip1)"><g clip-path="url(#clip2)"><g clip-path="url(#clip3)"><path d="M578.792 139.167C568.523 141.672 559.173 143.425 551.493 133.657 549.322 130.902 545.398 130.401 542.643 132.572 542.31 132.822 542.059 133.073 541.725 133.407 538.553 136.83 532.291 139.167 534.546 145.428 539.721 159.704 539.721 174.648 540.807 189.508 541.892 204.785 540.222 220.48 549.155 234.505L549.155 234.505C550.574 236.926 553.162 238.346 556.001 238.346 560.592 238.262 564.266 238.596 566.77 235.925 573.783 228.495 571.863 209.961 569.525 196.437 567.856 186.419 565.935 176.401 564.099 166.216 566.102 165.715 567.605 165.631 568.774 165.047 574.451 162.292 579.209 160.706 584.886 166.299 587.057 168.47 593.819 168.053 597.075 166.299 599.997 164.713 602.668 159.454 602.418 155.947 601.666 144.26 590.313 136.329 578.792 139.167Z" fill="#FFFFFF" transform="matrix(1 0 0 1.00236 921 448.189)"/><path d="M1026.35 213.384 1026.26 213.134C1015.83 164.129 1005.14 115.291 994.958 66.2025 992.286 53.2625 984.606 46.2499 972.333 43.4115 962.065 40.9904 957.807 43.328 954.802 53.513 950.628 67.5382 946.37 81.647 942.697 95.8392 938.69 111.2 935.267 126.645 931.427 142.089 930.842 144.427 929.089 146.43 927.92 148.601 926.084 146.764 923.245 145.178 922.494 142.924 920.991 138.416 920.073 133.657 919.906 128.815 919.572 110.95 919.906 93.1677 919.655 75.3022 919.572 69.5418 915.982 66.6199 910.305 66.4529 901.456 66.2025 896.697 71.2115 897.783 80.8121 900.371 103.186 899.619 125.392 896.948 147.682 895.195 162.292 893.442 176.818 892.022 191.511 890.854 203.7 883.173 212.382 870.066 215.221 860.215 217.391 855.039 214.052 848.36 201.529 848.11 201.029 847.776 200.444 847.526 199.943 835.337 177.737 835.504 154.194 839.177 129.984 841.515 114.873 843.602 99.6794 844.771 84.4854 845.939 69.2914 836.84 60.1082 821.479 60.2752 817.638 60.2752 813.882 60.8596 810.208 61.8614 804.782 63.4475 801.025 62.0283 797.602 57.6037 787.835 45.2481 774.895 38.6529 759.283 37.3172 751.853 36.6493 744.423 36.6493 736.993 35.8145 717.124 33.4769 698.257 34.7292 683.146 51.0085 680.892 48.6709 679.473 46.9178 677.887 45.4986 670.958 39.4877 663.695 41.0739 658.853 48.7544 654.762 55.1827 649.836 61.0265 645.078 67.0373 638.65 75.3022 631.637 83.0662 625.71 91.665 622.537 96.3401 619.866 102.017 619.114 107.61 617.779 117.712 617.612 128.064 617.695 138.332 617.946 169.555 625.543 198.524 645.412 223.235 649.502 228.161 653.927 232.836 658.686 237.177 658.686 237.177 666.617 243.104 674.548 244.357 678.137 244.941 684.9 241.268 686.235 236.843 688.155 230.832 682.395 219.645 674.297 214.553 662.025 206.872 654.845 195.602 649.92 182.495 645.662 171.058 647.833 162.793 656.849 154.862 671.375 142.006 671.292 139.167 655.597 127.73 640.236 116.543 639.15 109.697 651.59 95.3383 656.432 89.8284 662.526 85.3202 668.453 80.8956 675.716 75.4692 682.145 69.7923 684.148 60.3587 685.15 56.0175 689.324 54.9322 692.33 58.7725 698.257 66.4529 706.522 68.6235 715.121 71.0445 728.394 74.8013 731.483 80.0608 732.318 93.6686 733.821 119.799 735.991 145.846 737.828 171.893 739.164 191.177 740.5 210.379 741.752 229.663 741.752 230.081 741.835 230.498 741.835 230.832 742.754 238.93 747.345 244.023 753.44 243.772 759.2 243.522 763.124 238.93 763.541 230.916 764.209 217.224 765.044 203.533 764.543 189.925 763.875 168.637 761.454 147.349 761.12 126.06 760.953 112.035 762.957 98.0098 764.376 84.068 764.626 81.8974 766.213 79.4764 767.882 78.0572 775.897 71.128 793.428 71.7959 800.858 79.1425 807.787 85.9881 813.464 93.5016 816.386 103.102 819.141 112.035 820.477 119.966 815.05 128.982 812.045 133.908 811.878 141.421 812.546 147.516 813.965 160.622 816.887 173.562 818.807 186.669 821.813 206.288 831.163 222.734 844.52 236.843 852.284 245.108 863.221 244.357 873.489 243.188 884.258 241.935 894.109 238.095 902.291 230.498 903.961 228.996 905.714 227.743 907.634 226.575 915.147 221.899 920.156 222.901 924.998 230.248 926.334 232.251 927.252 234.505 928.588 236.509 931.427 241.101 935.601 243.188 940.944 241.769 946.12 240.349 946.454 236.008 946.704 231.667 947.622 217.642 948.374 203.617 949.877 189.675 950.795 180.742 955.637 173.813 964.319 170.39 973.419 166.717 981.266 168.887 984.856 178.071 988.947 188.423 991.702 199.442 993.872 210.379 994.624 214.386 995.208 218.477 995.625 222.567 996.293 229.83 1002.81 235.257 1010.07 234.505 1010.65 234.422 1011.24 234.339 1011.82 234.255L1012.82 234.005C1022.51 232.084 1028.35 222.734 1026.35 213.384ZM973.836 126.645C973.669 127.73 970.914 129.233 969.495 129.066 968.076 128.899 965.822 126.812 965.905 125.726 966.156 122.053 967.241 118.463 968.243 113.872 974.421 117.545 974.671 122.053 973.836 126.645Z" fill="#FFFFFF" transform="matrix(1 0 0 1.00236 921 448.189)"/><path d="M523.943 36.7328C521.689 35.8979 514.342 34.7292 514.342 34.7292 508.415 34.3952 500.234 36.1484 495.225 39.2373L495.141 39.3208C475.439 51.6764 459.243 67.7052 445.635 86.489 428.688 109.948 419.923 135.41 427.937 164.296 435.284 190.844 447.055 214.386 475.022 225.322 479.53 226.908 484.038 228.244 488.713 229.246 492.052 229.747 501.486 230.832 507.831 226.074 512.589 222.484 517.431 217.475 518.517 211.881 521.522 196.687 520.687 181.41 513.508 167.134 506.745 153.693 494.974 147.516 480.281 149.519 478.194 149.853 475.272 151.189 474.688 152.858 474.103 154.278 475.94 156.949 477.192 158.702 478.528 160.622 480.615 162.042 482.034 163.962 484.205 166.884 484.539 169.889 481.533 172.561 478.528 175.232 474.855 176.484 471.766 173.312 464.419 165.548 458.408 157.116 461.163 145.345 463.251 136.329 465.672 127.396 467.258 118.38 470.43 100.18 479.697 86.1551 495.475 76.8049 502.822 72.3803 510.669 68.3731 518.851 65.7851 536.048 60.4421 534.629 48.17 532.876 43.7454 531.958 40.907 526.865 37.7346 523.943 36.7328Z" fill="#FFFFFF" transform="matrix(1 0 0 1.00236 921 448.189)"/><path d="M322.414 230.582C319.826 229.747 317.238 229.163 314.566 228.495 310.225 227.326 308.639 225.155 309.39 220.814 310.476 214.469 311.394 207.958 312.98 201.696 316.069 190.009 317.739 178.238 315.735 166.132 313.898 154.695 312.312 143.258 308.138 132.238 305.633 125.643 303.713 118.797 301.71 111.952 300.541 108.111 299.623 104.104 298.454 100.264 295.866 91.9155 290.439 87.9082 281.757 87.5743 280.421 87.5743 279.086 87.3239 277.75 87.1569 272.073 86.489 268.233 83.4836 266.647 77.9737 265.895 75.1352 265.311 72.2133 265.06 69.2079 263.725 58.2716 260.886 47.8361 255.71 38.152 252.955 32.976 246.611 29.8036 240.433 30.4715 234.088 31.1394 230.498 34.3118 228.662 40.907 227.91 43.6619 227.075 46.4169 226.408 49.2553 223.903 59.0229 222.567 69.0409 222.484 79.059 222.484 85.8212 221.399 92.6668 220.564 99.429 220.48 100.431 219.228 101.933 218.477 102.017 217.725 102.1 216.556 100.848 215.638 100.097 215.388 99.8464 215.221 99.5125 215.221 99.095 213.134 92.2494 210.713 85.4037 208.959 78.4746 206.789 70.2932 205.537 61.7779 201.029 54.5148 196.103 46.5839 193.265 37.985 191.595 28.8853 190.092 20.7874 187.421 13.1904 182.161 6.51172 174.397-3.50631 154.027-2.83844 149.269 11.4373 148.768 12.8565 148.016 14.2757 147.933 15.7784 147.516 21.8727 146.931 27.967 147.265 34.0613 147.599 41.3244 148.935 48.504 149.603 55.7671 150.437 65.4511 151.105 75.1352 151.773 84.8193 152.107 87.7413 152.274 90.7467 152.191 93.6686 152.107 97.5089 150.604 101.182 147.933 104.021 147.098 102.768 146.347 101.433 145.762 100.097 139.752 83.3166 137.831 65.952 138.165 48.337 138.332 41.9923 138.416 35.6475 135.494 29.8036 131.32 21.5388 125.142 15.528 115.541 14.6931 104.605 13.7748 92.8338 25.2955 92.8338 36.2319 92.8338 41.9088 93.1677 47.5857 92.8338 53.2625 91.498 76.5545 90.0788 99.8464 88.4091 123.055 87.7413 132.906 84.9028 142.34 81.0626 151.439 79.3094 155.613 76.3875 157.617 71.7959 157.45 69.3749 157.367 66.9538 157.45 64.5328 157.367 58.0211 157.116 54.9322 154.862 53.4295 148.517 50.3406 135.494 47.4187 122.387 44.6637 109.28 43.495 103.77 41.1574 100.765 35.564 100.097 30.1376 99.429 24.6277 99.3455 19.2012 99.9299 9.6841 101.099 5.0925 107.527 5.5934 117.044 5.92734 123.973 6.01082 130.902 5.67689 137.831 5.50992 142.84 4.42463 147.849 4.00721 152.858 3.67328 157.45 4.00721 162.042 3.42283 166.633 1.25225 184.666 4.92553 201.529 13.5243 217.391 17.1141 224.07 16.1123 225.823 8.43184 226.241 3.00541 226.575 5.93187e-14 229.58 0.250451 234.505 0.417418 239.097 3.50631 241.435 9.09971 241.268 11.4373 241.184 13.7748 240.85 16.1123 241.101 27.5496 242.52 38.9034 244.106 50.3406 245.776 51.5929 245.943 71.7959 247.028 74.3839 247.028 76.0536 247.028 77.8067 247.111 79.4764 247.028 85.3202 246.611 91.1641 245.776 97.0079 245.692 117.294 245.442 137.497 245.358 157.784 245.442 166.216 245.442 174.731 246.11 183.163 246.193 194.099 246.193 205.119 245.776 216.056 245.859 224.32 245.943 232.669 245.859 240.85 247.028 249.449 248.28 258.215 248.948 266.897 248.948 276.247 249.032 285.597 249.533 294.948 249.866 304.298 250.2 313.481 249.783 322.497 247.195 323.749 246.861 325.503 245.609 325.753 244.523 326.337 241.518 326.671 238.513 326.504 235.424 326.337 233.003 324.751 231.25 322.414 230.582ZM279.754 98.6776C282.842 98.6776 285.263 101.683 285.263 105.44 285.263 109.03 283.176 111.868 280.505 111.868 276.915 111.868 274.661 109.53 274.661 105.941 274.661 101.516 276.665 98.6776 279.754 98.6776L279.754 98.6776ZM239.932 51.3424C243.689 51.1754 246.36 53.513 246.444 57.0193 246.527 59.4403 244.941 60.5256 240.934 60.6091 237.26 60.7761 235.34 59.3568 235.173 56.5184 235.006 53.2625 236.676 51.5094 239.932 51.3424ZM168.386 18.1159C173.896 18.1994 177.319 21.7892 177.319 27.3826 177.319 32.1412 174.564 34.7292 169.639 34.7292 164.296 34.7292 162.125 32.2247 162.125 26.2139 162.209 20.4535 164.045 18.0325 168.386 18.1159ZM114.79 30.3045C118.63 30.3045 122.637 34.7292 122.637 39.1538 122.637 43.9959 118.797 47.9196 113.955 47.9196 113.955 47.9196 113.955 47.9196 113.955 47.9196 109.28 47.9196 104.104 43.2445 104.021 38.9034 103.937 35.3136 110.198 30.3045 114.79 30.3045ZM23.4589 116.209C24.5442 114.122 26.6313 113.371 28.9688 113.788 31.3064 114.206 31.5568 116.042 31.7238 117.879 31.8907 120.383 34.0613 122.387 33.2265 125.309 31.9742 129.65 30.388 131.57 26.9652 131.32 23.8763 131.153 22.1232 128.982 21.6223 124.725 21.5388 124.224 21.5388 123.639 21.4553 123.138L21.0379 122.971C21.7892 120.717 22.3736 118.296 23.4589 116.209ZM293.445 193.849C292.777 199.526 292.777 205.37 292.276 211.047 292.109 212.967 291.942 215.054 291.107 216.723 286.85 224.988 280.338 230.415 270.654 230.999 261.554 231.5 252.454 231.917 243.438 232.001 229.496 232.084 215.555 231.667 201.613 231.834 177.403 232.084 153.192 232.669 129.066 233.086 128.398 233.17 127.646 233.17 126.895 233.003 119.131 229.663 111.117 229.997 103.269 231.751 88.5761 235.006 74.1334 233.587 59.5238 231.417 53.8469 230.498 48.0866 230.081 42.3262 230.081 35.6475 230.081 31.1394 227.159 28.134 221.565 27.1322 219.562 26.2973 217.475 25.7129 215.304 24.2102 210.128 23.2919 204.785 21.5388 199.693 17.1141 186.836 16.4463 173.813 18.1994 160.539 18.8673 155.78 19.7856 151.022 20.537 146.347 20.8709 144.343 21.8727 143.341 24.0433 143.508 26.7148 143.592 29.4697 143.425 32.1412 143.508 35.8145 143.592 38.9868 145.011 40.6565 148.35 44.8307 156.615 51.1754 163.127 56.9358 170.14 59.0229 172.728 61.0265 175.483 62.7797 178.238 67.0373 184.916 78.0572 185.417 82.7323 178.989 86.9064 173.312 89.5779 167.218 89.6614 159.871 89.7449 153.944 91.5815 148.016 92.5833 142.089 94.7539 129.066 96.7575 115.959 99.095 102.935 100.514 95.0878 102.518 87.3239 104.104 79.4764 104.521 77.3893 104.188 75.1352 104.438 73.0482 104.772 70.7106 105.022 68.2061 106.108 66.0355 108.863 60.3587 115.207 59.3568 119.882 63.531 123.639 66.8704 125.559 71.3785 127.312 75.8866 130.568 84.5689 131.069 93.8356 132.155 102.935 133.49 114.373 136.997 125.559 142.59 135.661 145.345 140.586 148.768 142.673 152.608 141.922 157.784 140.92 161.541 136.579 161.958 131.403 162.292 125.142 162.042 118.797 162.042 112.536L162.459 112.536C162.459 107.443 162.543 102.267 162.459 97.0914 162.292 93.5851 163.628 90.2458 166.216 87.9082 168.637 85.5707 169.221 83.6506 167.301 81.5635 161.541 75.3857 161.791 68.2896 163.043 60.7761 163.711 56.5184 165.965 53.7634 170.14 52.5112 177.57 50.3406 183.33 53.0956 186.252 60.1917 188.589 65.7851 190.927 71.295 193.265 76.8049 198.524 88.91 200.027 101.6 199.86 114.79 199.86 123.723 200.444 132.572 201.613 141.421 202.114 145.595 204.117 149.603 205.787 153.61 206.789 156.031 209.46 156.699 212.299 155.78 215.555 154.695 217.725 152.274 219.478 149.519 224.905 141.004 227.576 131.57 228.411 121.552 228.996 112.202 229.58 102.852 230.415 93.5851 230.832 89.1605 232.836 84.9863 236.175 81.9809 239.598 78.725 243.021 78.3911 246.861 81.313 248.948 82.9827 250.534 85.5707 252.872 86.656 258.799 89.4944 259.467 93.6686 258.716 99.6794 258.048 105.356 258.799 111.367 259.634 117.128 261.053 126.478 259.801 135.828 259.467 145.178 259.133 157.283 259.217 169.472 259.133 181.577 259.133 181.994 259.133 182.495 259.3 182.913 259.801 184.081 260.218 185.835 261.053 186.168 261.888 186.502 263.641 185.668 264.56 184.916 269.151 180.826 273.576 176.484 274.327 169.889 274.578 167.802 274.16 165.631 274.244 163.461 274.244 153.693 274.327 144.009 274.411 134.325 274.411 132.155 275.245 130.318 277.333 129.233 279.42 128.147 281.089 129.4 282.676 130.652 285.347 132.739 287.184 135.661 287.851 138.917 288.269 141.004 288.853 143.091 289.688 145.095 293.027 152.692 292.36 161.04 294.029 168.887 296.033 177.152 294.363 185.501 293.445 193.849L293.445 193.849Z" fill="#FFFFFF" transform="matrix(1 0 0 1.00236 921 448.189)"/></g></g></g></g></svg>