<?xml version="1.0" encoding="utf-8"?>
<!-- Generator: Adobe Illustrator 25.0.1, SVG Export Plug-In . SVG Version: 6.00 Build 0)  -->
<svg version="1.1" id="Layer_1" xmlns="http://www.w3.org/2000/svg" xmlns:xlink="http://www.w3.org/1999/xlink" x="0px" y="0px"
	 viewBox="0 0 336 252" style="enable-background:new 0 0 336 252;" xml:space="preserve">
<style type="text/css">
	.st0{clip-path:url(#SVGID_2_);}
	.st1{clip-path:url(#SVGID_4_);}
	.st2{clip-path:url(#SVGID_6_);}
	.st3{clip-path:url(#SVGID_8_);}
	.st4{fill:#FFFFFF;}
</style>
<g>
	<defs>
		<rect id="SVGID_1_" width="336" height="252"/>
	</defs>
	<clipPath id="SVGID_2_">
		<use xlink:href="#SVGID_1_"  style="overflow:visible;"/>
	</clipPath>
	<g transform="translate(-920 -448)" class="st0">
		<g>
			<defs>
				<rect id="SVGID_3_" x="921" y="448" width="334" height="251"/>
			</defs>
			<clipPath id="SVGID_4_">
				<use xlink:href="#SVGID_3_"  style="overflow:visible;"/>
			</clipPath>
			<g class="st1">
				<g>
					<defs>
						<rect id="SVGID_5_" x="921" y="448" width="334" height="251"/>
					</defs>
					<clipPath id="SVGID_6_">
						<use xlink:href="#SVGID_5_"  style="overflow:visible;"/>
					</clipPath>
					<g class="st2">
						<g>
							<defs>
								<rect id="SVGID_7_" x="921" y="448" width="1027" height="251"/>
							</defs>
							<clipPath id="SVGID_8_">
								<use xlink:href="#SVGID_7_"  style="overflow:visible;"/>
							</clipPath>
							<g class="st3">
								<path class="st4" d="M1499.8,587.7c-10.3,2.5-19.6,4.3-27.3-5.5c-2.2-2.8-6.1-3.3-8.8-1.1c-0.3,0.3-0.6,0.5-0.9,0.8
									c-3.2,3.4-9.4,5.8-7.2,12c5.2,14.3,5.2,29.3,6.3,44.2c1.1,15.3-0.6,31,8.3,45.1l0,0c1.4,2.4,4,3.9,6.8,3.9
									c4.6-0.1,8.3,0.3,10.8-2.4c7-7.4,5.1-26,2.8-39.6c-1.7-10-3.6-20.1-5.4-30.3c2-0.5,3.5-0.6,4.7-1.2
									c5.7-2.8,10.4-4.4,16.1,1.3c2.2,2.2,8.9,1.8,12.2,0c2.9-1.6,5.6-6.9,5.3-10.4C1522.7,592.8,1511.3,584.8,1499.8,587.7z"/>
								<path class="st4" d="M1947.3,662.1l-0.1-0.3c-10.4-49.1-21.1-98.1-31.3-147.3c-2.7-13-10.4-20-22.6-22.8
									c-10.3-2.4-14.5-0.1-17.5,10.1c-4.2,14.1-8.4,28.2-12.1,42.4c-4,15.4-7.4,30.9-11.3,46.4c-0.6,2.3-2.3,4.4-3.5,6.5
									c-1.8-1.8-4.7-3.4-5.4-5.7c-1.5-4.5-2.4-9.3-2.6-14.1c-0.3-17.9,0-35.7-0.3-53.6c-0.1-5.8-3.7-8.7-9.4-8.9
									c-8.8-0.3-13.6,4.8-12.5,14.4c2.6,22.4,1.8,44.7-0.8,67c-1.8,14.6-3.5,29.2-4.9,43.9c-1.2,12.2-8.8,20.9-22,23.8
									c-9.9,2.2-15-1.2-21.7-13.7c-0.2-0.5-0.6-1.1-0.8-1.6c-12.2-22.3-12-45.9-8.3-70.1c2.3-15.1,4.4-30.4,5.6-45.6
									c1.2-15.2-7.9-24.4-23.3-24.3c-3.8,0-7.6,0.6-11.3,1.6c-5.4,1.6-9.2,0.2-12.6-4.3c-9.8-12.4-22.7-19-38.3-20.3
									c-7.4-0.7-14.9-0.7-22.3-1.5c-19.9-2.3-38.7-1.1-53.8,15.2c-2.3-2.3-3.7-4.1-5.3-5.5c-6.9-6-14.2-4.4-19,3.3
									c-4.1,6.4-9,12.3-13.8,18.3c-6.4,8.3-13.4,16.1-19.4,24.7c-3.2,4.7-5.8,10.4-6.6,16c-1.3,10.1-1.5,20.5-1.4,30.8
									c0.3,31.3,7.8,60.3,27.7,85.1c4.1,4.9,8.5,9.6,13.3,14c0,0,7.9,5.9,15.9,7.2c3.6,0.6,10.4-3.1,11.7-7.5
									c1.9-6-3.8-17.2-11.9-22.3c-12.3-7.7-19.5-19-24.4-32.1c-4.3-11.5-2.1-19.7,6.9-27.7c14.5-12.9,14.4-15.7-1.3-27.2
									c-15.4-11.2-16.4-18.1-4-32.5c4.8-5.5,10.9-10,16.9-14.5c7.3-5.4,13.7-11.1,15.7-20.6c1-4.4,5.2-5.4,8.2-1.6
									c5.9,7.7,14.2,9.9,22.8,12.3c13.3,3.8,16.4,9,17.2,22.7c1.5,26.2,3.7,52.3,5.5,78.4c1.3,19.3,2.7,38.6,3.9,57.9
									c0,0.4,0.1,0.8,0.1,1.2c0.9,8.1,5.5,13.2,11.6,13c5.8-0.3,9.7-4.9,10.1-12.9c0.7-13.7,1.5-27.4,1-41.1
									c-0.7-21.3-3.1-42.7-3.4-64c-0.2-14.1,1.8-28.1,3.3-42.1c0.2-2.2,1.8-4.6,3.5-6c8-6.9,25.5-6.3,33,1.1
									c6.9,6.9,12.6,14.4,15.5,24c2.8,9,4.1,16.9-1.3,25.9c-3,4.9-3.2,12.5-2.5,18.6c1.4,13.1,4.3,26.1,6.3,39.2
									c3,19.7,12.4,36.2,25.7,50.3c7.8,8.3,18.7,7.5,29,6.4c10.8-1.3,20.6-5.1,28.8-12.7c1.7-1.5,3.4-2.8,5.3-3.9
									c7.5-4.7,12.5-3.7,17.4,3.7c1.3,2,2.3,4.3,3.6,6.3c2.8,4.6,7,6.7,12.4,5.3c5.2-1.4,5.5-5.8,5.8-10.1
									c0.9-14.1,1.7-28.1,3.2-42.1c0.9-9,5.8-15.9,14.4-19.3c9.1-3.7,16.9-1.5,20.5,7.7c4.1,10.4,6.8,21.4,9,32.4
									c0.8,4,1.3,8.1,1.8,12.2c0.7,7.3,7.2,12.7,14.4,12c0.6-0.1,1.2-0.2,1.8-0.3l1-0.3C1943.5,680.8,1949.3,671.4,1947.3,662.1z
									 M1894.8,575.1c-0.2,1.1-2.9,2.6-4.3,2.4c-1.4-0.2-3.7-2.3-3.6-3.3c0.3-3.7,1.3-7.3,2.3-11.9
									C1895.4,566,1895.7,570.5,1894.8,575.1z"/>
								<path class="st4" d="M1444.9,485c-2.3-0.8-9.6-2-9.6-2c-5.9-0.3-14.1,1.4-19.1,4.5l-0.1,0.1c-19.7,12.4-35.9,28.5-49.5,47.3
									c-16.9,23.5-25.7,49-17.7,78c7.3,26.6,19.1,50.2,47.1,61.2c4.5,1.6,9,2.9,13.7,3.9c3.3,0.5,12.8,1.6,19.1-3.2
									c4.8-3.6,9.6-8.6,10.7-14.2c3-15.2,2.2-30.5-5-44.9c-6.8-13.5-18.5-19.7-33.2-17.7c-2.1,0.3-5,1.7-5.6,3.3
									c-0.6,1.4,1.3,4.1,2.5,5.9c1.3,1.9,3.4,3.3,4.8,5.3c2.2,2.9,2.5,5.9-0.5,8.6c-3,2.7-6.7,3.9-9.8,0.8
									c-7.3-7.8-13.4-16.2-10.6-28c2.1-9,4.5-18,6.1-27c3.2-18.2,12.4-32.3,28.2-41.7c7.3-4.4,15.2-8.5,23.4-11
									c17.2-5.4,15.8-17.7,14-22.1C1453,489.2,1447.9,486,1444.9,485z"/>
								<path class="st4" d="M1243.4,679.3c-2.6-0.8-5.2-1.4-7.8-2.1c-4.3-1.2-5.9-3.3-5.2-7.7c1.1-6.4,2-12.9,3.6-19.2
									c3.1-11.7,4.8-23.5,2.8-35.6c-1.8-11.5-3.4-22.9-7.6-34c-2.5-6.6-4.4-13.5-6.4-20.3c-1.2-3.9-2.1-7.9-3.3-11.7
									c-2.6-8.4-8-12.4-16.7-12.7c-1.3,0-2.7-0.3-4-0.4c-5.7-0.7-9.5-3.7-11.1-9.2c-0.8-2.8-1.3-5.8-1.6-8.8
									c-1.3-11-4.2-21.4-9.4-31.1c-2.8-5.2-9.1-8.4-15.3-7.7c-6.3,0.7-9.9,3.8-11.8,10.5c-0.8,2.8-1.6,5.5-2.3,8.4
									c-2.5,9.8-3.8,19.8-3.9,29.9c0,6.8-1.1,13.6-1.9,20.4c-0.1,1-1.3,2.5-2.1,2.6c-0.8,0.1-1.9-1.2-2.8-1.9
									c-0.2-0.3-0.4-0.6-0.4-1c-2.1-6.9-4.5-13.7-6.3-20.7c-2.2-8.2-3.4-16.7-7.9-24c-4.9-7.9-7.8-16.6-9.4-25.7
									c-1.5-8.1-4.2-15.7-9.4-22.4c-7.8-10-28.1-9.4-32.9,4.9c-0.5,1.4-1.3,2.8-1.3,4.4c-0.4,6.1-1,12.2-0.7,18.3
									c0.3,7.3,1.7,14.5,2.3,21.8c0.8,9.7,1.5,19.4,2.2,29.1c0.3,2.9,0.5,5.9,0.4,8.9c-0.1,3.8-1.6,7.5-4.3,10.4
									c-0.8-1.3-1.6-2.6-2.2-3.9c-6-16.8-7.9-34.2-7.6-51.9c0.2-6.4,0.3-12.7-2.7-18.6c-4.2-8.3-10.4-14.3-20-15.1
									c-10.9-0.9-22.7,10.6-22.7,21.6c0,5.7,0.3,11.4,0,17.1c-1.3,23.3-2.8,46.7-4.4,70c-0.7,9.9-3.5,19.3-7.3,28.5
									c-1.8,4.2-4.7,6.2-9.3,6c-2.4-0.1-4.8,0-7.3-0.1c-6.5-0.3-9.6-2.5-11.1-8.9c-3.1-13.1-6-26.2-8.8-39.3
									c-1.2-5.5-3.5-8.5-9.1-9.2c-5.4-0.7-10.9-0.8-16.4-0.2c-9.5,1.2-14.1,7.6-13.6,17.2c0.3,6.9,0.4,13.9,0.1,20.8
									c-0.2,5-1.3,10-1.7,15.1c-0.3,4.6,0,9.2-0.6,13.8c-2.2,18.1,1.5,35,10.1,50.9c3.6,6.7,2.6,8.5-5.1,8.9
									c-5.4,0.3-8.4,3.3-8.2,8.3c0.2,4.6,3.3,6.9,8.8,6.8c2.3-0.1,4.7-0.4,7-0.2c11.4,1.4,22.8,3,34.2,4.7
									c1.3,0.2,21.5,1.3,24,1.3c1.7,0,3.4,0.1,5.1,0c5.8-0.4,11.7-1.3,17.5-1.3c20.3-0.3,40.5-0.3,60.8-0.3
									c8.4,0,16.9,0.7,25.4,0.8c10.9,0,22-0.4,32.9-0.3c8.3,0.1,16.6,0,24.8,1.2c8.6,1.3,17.4,1.9,26,1.9
									c9.4,0.1,18.7,0.6,28.1,0.9c9.3,0.3,18.5-0.1,27.5-2.7c1.3-0.3,3-1.6,3.3-2.7c0.6-3,0.9-6,0.8-9.1
									C1247.3,681.7,1245.8,680,1243.4,679.3z M1200.8,547.1c3.1,0,5.5,3,5.5,6.8c0,3.6-2.1,6.4-4.8,6.4c-3.6,0-5.8-2.3-5.8-5.9
									C1195.7,549.9,1197.7,547.1,1200.8,547.1L1200.8,547.1z M1160.9,499.7c3.8-0.2,6.4,2.2,6.5,5.7c0.1,2.4-1.5,3.5-5.5,3.6
									c-3.7,0.2-5.6-1.3-5.8-4.1C1156,501.6,1157.7,499.8,1160.9,499.7z M1089.4,466.3c5.5,0.1,8.9,3.7,8.9,9.3
									c0,4.8-2.8,7.4-7.7,7.4c-5.3,0-7.5-2.5-7.5-8.5C1083.2,468.7,1085,466.3,1089.4,466.3z M1035.8,478.6c3.8,0,7.8,4.4,7.8,8.9
									c0,4.9-3.8,8.8-8.7,8.8l0,0c-4.7,0-9.9-4.7-9.9-9C1024.9,483.6,1031.2,478.6,1035.8,478.6z M944.5,564.7
									c1.1-2.1,3.2-2.8,5.5-2.4c2.3,0.4,2.6,2.3,2.8,4.1c0.2,2.5,2.3,4.5,1.5,7.4c-1.3,4.4-2.8,6.3-6.3,6
									c-3.1-0.2-4.8-2.3-5.3-6.6c-0.1-0.5-0.1-1.1-0.2-1.6l-0.4-0.2C942.8,569.2,943.4,566.8,944.5,564.7z"/>
							</g>
						</g>
					</g>
				</g>
			</g>
		</g>
	</g>
</g>
</svg>
